# xmcd
#
# Track frame offsets:
#	150
#	14312
#	26737
#	44045
#	57067
#	73325
#	90295
#	110607
#	123045
#	140120
#	154815
#	172797
#
# Disc length: 2522 seconds
# Revision: 6
# Processed by: cddbd v1.5.2PL0 Copyright (c) Steve Scherf et al.
# Submitted via: dBpowerAMP V12.0
#
DISCID=9e09d80c
DTITLE=Randy Travis - You and You Alone
DYEAR=1998
DGENRE=Country
TTITLE0=The Hole
TTITLE1=Out of My Bones
TTITLE2=Spirit of a Boy, Wisdom of a Man
TTITLE3=Only Worse
TTITLE4=One Word Song
TTITLE5=I Did My Part
TTITLE6=Horse Called Music
TTITLE7=I’m Still Here, You’re Still Gone
TTITLE8=Easy to Love You
TTITLE9=Stranger in My Mirror
TTITLE10=You and You Alone
TTITLE11=Satisfied Mind
EXTD=
EXTT0=
EXTT1=
EXTT2=
EXTT3=
EXTT4=
EXTT5=
EXTT6=
EXTT7=
EXTT8=
EXTT9=
EXTT10=
EXTT11=
PLAYORDER=
